HIERARCHY
ROOT Pelvis
{
	OFFSET 0.000000 0.000000 0.000000
	CHANNELS 6 Xposition Yposition Zposition Xrotation Yrotation Zrotation
	JOINT LeftUpLeg_virtual
	{
		OFFSET 0.000000 0.000000 0.000000
		CHANNELS 3 Xrotation Yrotation Zrotation
		JOINT LeftUpLeg
		{
			OFFSET 18.735201 -5.666702 -4.541200
			CHANNELS 3 Xrotation Yrotation Zrotation
			JOINT LeftLeg
			{
				OFFSET -0.021200 -31.938179 0.493100
				CHANNELS 3 Xrotation Yrotation Zrotation
				JOINT LeftFoot
				{
					OFFSET 0.021200 -31.938179 -4.336299
					CHANNELS 3 Xrotation Yrotation Zrotation
					JOINT LeftToeBase
					{
						OFFSET 0.943001 -26.722000 15.023500
						CHANNELS 3 Xrotation Yrotation Zrotation
						End Site
						{
							OFFSET 0 0 0
						}
					}
				}
			}
		}
	}
	JOINT RightUpLeg_virtual
	{
		OFFSET 0.000000 0.000000 0.000000
		CHANNELS 3 Xrotation Yrotation Zrotation
		JOINT RightUpLeg
		{
			OFFSET -18.735201 -5.666702 -4.541200
			CHANNELS 3 Xrotation Yrotation Zrotation
			JOINT RightLeg
			{
				OFFSET 0.018946 -31.938133 0.493100
				CHANNELS 3 Xrotation Yrotation Zrotation
				JOINT RightFoot
				{
					OFFSET -0.018946 -31.938126 -4.336299
					CHANNELS 3 Xrotation Yrotation Zrotation
					JOINT RightToeBase
					{
						OFFSET -0.943001 -26.722004 15.023500
						CHANNELS 3 Xrotation Yrotation Zrotation
						End Site
						{
							OFFSET 0 0 0
						}
					}
				}
			}
		}
	}
	JOINT Hips_virtual
	{
		OFFSET 0.000000 0.000000 0.000000
		CHANNELS 3 Xrotation Yrotation Zrotation
		JOINT Hips
		{
			OFFSET -0.000000 -0.000000 -0.000000
			CHANNELS 3 Xrotation Yrotation Zrotation
			JOINT Spine
			{
				OFFSET 0.000000 10.199997 -0.299500
				CHANNELS 3 Xrotation Yrotation Zrotation
				JOINT Spine1
				{
					OFFSET 0.000000 11.900002 -1.516600
					CHANNELS 3 Xrotation Yrotation Zrotation
					JOINT Spine2
					{
						OFFSET 0.000000 13.600006 -2.842500
						CHANNELS 3 Xrotation Yrotation Zrotation
						JOINT Neck_virtual
						{
							OFFSET 0.000000 0.000000 0.000000
							CHANNELS 3 Xrotation Yrotation Zrotation
							JOINT Neck
							{
								OFFSET 0.000000 9.624100 -2.890100
								CHANNELS 3 Xrotation Yrotation Zrotation
								JOINT Head
								{
									OFFSET 0.000000 14.068802 -1.351900
									CHANNELS 3 Xrotation Yrotation Zrotation
									End Site
									{
										OFFSET 0 0 0
									}
								}
							}
						}
						JOINT LeftShoulder_virtual
						{
							OFFSET 0.000000 0.000000 0.000000
							CHANNELS 3 Xrotation Yrotation Zrotation
							JOINT LeftShoulder
							{
								OFFSET 15.263000 10.923401 -0.547700
								CHANNELS 3 Xrotation Yrotation Zrotation
								JOINT LeftArm
								{
									OFFSET 25.438599 -2.830597 -13.032500
									CHANNELS 3 Xrotation Yrotation Zrotation
									JOINT LeftForeArm
									{
										OFFSET 29.960503 0.000000 0.000000
										CHANNELS 3 Xrotation Yrotation Zrotation
										JOINT LeftHand
										{
											OFFSET 27.849251 0.000000 0.000000
											CHANNELS 3 Xrotation Yrotation Zrotation
											End Site
											{
												OFFSET 0 0 0
											}
										}
									}
								}
							}
						}
						JOINT RightShoulder_virtual
						{
							OFFSET 0.000000 0.000000 0.000000
							CHANNELS 3 Xrotation Yrotation Zrotation
							JOINT RightShoulder
							{
								OFFSET -15.263000 10.923401 -0.547700
								CHANNELS 3 Xrotation Yrotation Zrotation
								JOINT RightArm
								{
									OFFSET -25.438599 -2.830597 -13.032500
									CHANNELS 3 Xrotation Yrotation Zrotation
									JOINT RightForeArm
									{
										OFFSET -29.960503 0.000000 0.000000
										CHANNELS 3 Xrotation Yrotation Zrotation
										JOINT RightHand
										{
											OFFSET -27.849251 0.000000 0.000000
											CHANNELS 3 Xrotation Yrotation Zrotation
											End Site
											{
												OFFSET 0 0 0
											}
										}
									}
								}
							}
						}
					}
				}
			}
		}
	}
}
MOTION
Frames: 12
Frame Time: 0.03333333
-0.050118 91.369377 10.308266 0.000000 0.000000 0.000000 -32.935346 -36.884012 -21.265693 0.290740 16.843846 1.685331 36.046648 0.169954 -2.417042 -15.211724 9.150690 4.078227 0.000000 0.000000 0.000000 -33.427912 -34.651920 -21.745900 17.215413 -9.337223 -8.416700 26.848873 7.379793 -2.262834 -22.753611 -15.811692 10.884072 0.000000 0.000000 0.000000 -32.911219 -35.181912 -20.719753 -1.287731 0.517267 -1.099782 12.432906 -4.458589 0.394645 4.503295 -2.155712 0.309320 0.000000 0.000000 0.000000 3.829998 -1.932419 -0.101115 0.672067 0.201899 -0.499534 0.000000 0.000000 0.000000 3.785397 -1.911116 -0.443349 -0.005497 -18.169164 -10.650876 -21.784678 3.752068 -37.603798 2.249227 -60.440337 1.749551 0.000000 0.000000 0.000000 3.756751 -1.582860 -0.309955 0.237684 15.093934 15.165566 -9.948666 -4.901093 61.690139 1.051155 41.819230 -0.084118 0.000000 0.000000 0.000000 
0.468180 91.330849 11.078781 0.000000 0.000000 0.000000 -34.312398 -39.280449 -23.211049 1.196140 18.211747 1.101524 34.910108 -0.324426 -3.607586 -15.341214 10.433251 6.925454 0.000000 0.000000 0.000000 -34.743123 -36.967446 -23.515013 16.298100 -8.934924 -8.988164 27.030289 6.761288 -3.388826 -20.984711 -15.375470 10.776239 0.000000 0.000000 0.000000 -34.277820 -37.486448 -22.592767 -1.207069 0.475525 -1.098433 12.320008 -4.435909 0.520138 4.491097 -2.163212 0.311587 0.000000 0.000000 0.000000 3.844769 -1.927657 -0.095088 0.681352 0.196043 -0.486588 0.000000 0.000000 0.000000 3.779454 -1.902990 -0.438838 -0.008093 -18.237795 -10.781692 -21.659713 3.570680 -37.390313 2.176053 -60.323534 1.702017 0.000000 0.000000 0.000000 3.735792 -1.576567 -0.302116 0.285452 15.052352 15.147159 -10.034845 -4.842764 61.752335 1.032302 41.840714 -0.062204 0.000000 0.000000 0.000000 
0.997276 91.283646 11.827797 0.000000 0.000000 0.000000 -35.938481 -41.546675 -25.310623 2.068911 19.181828 0.718943 33.662751 -1.048239 -4.702873 -15.200236 11.505782 8.725522 0.000000 0.000000 0.000000 -36.307943 -39.232846 -25.495829 15.269516 -8.797261 -9.007046 27.408526 5.651505 -4.460620 -18.592991 -15.031377 10.077180 0.000000 0.000000 0.000000 -35.896746 -39.664551 -24.657697 -1.071694 0.379134 -1.060914 12.203365 -4.397548 0.623041 4.470810 -2.168108 0.329409 0.000000 0.000000 0.000000 3.855994 -1.919081 -0.081986 0.684665 0.188216 -0.475997 0.000000 0.000000 0.000000 3.756561 -1.891077 -0.424568 -0.003459 -18.257511 -10.863278 -21.600123 3.223178 -37.259659 2.103493 -60.147315 1.655357 0.000000 0.000000 0.000000 3.712484 -1.565533 -0.290871 0.310434 15.028346 15.157103 -10.033977 -4.832358 61.697843 1.022393 41.893320 -0.035077 0.000000 0.000000 0.000000 
1.515426 91.274399 12.489662 0.000000 0.000000 0.000000 -37.823293 -43.679422 -27.567933 2.779921 19.813315 0.594257 32.568271 -1.789248 -5.658053 -14.957513 12.363862 9.776760 0.000000 0.000000 0.000000 -38.197696 -41.348025 -27.713354 14.158400 -8.956924 -8.459902 27.923039 4.200145 -5.292909 -16.106126 -14.761642 8.883030 0.000000 0.000000 0.000000 -37.779398 -41.742066 -26.891990 -0.941294 0.250241 -1.003559 12.094037 -4.350624 0.673927 4.444780 -2.170038 0.353990 0.000000 0.000000 0.000000 3.860024 -1.908297 -0.071070 0.677681 0.179987 -0.467024 0.000000 0.000000 0.000000 3.722733 -1.878567 -0.411664 0.003170 -18.219106 -10.880763 -21.620503 2.796434 -37.195916 2.032999 -59.970495 1.618938 0.000000 0.000000 0.000000 3.691530 -1.549752 -0.283545 0.312823 14.998388 15.171052 -9.996803 -4.823917 61.600411 1.022246 41.915249 -0.022789 0.000000 0.000000 0.000000 
2.011588 91.306854 12.967377 0.000000 0.000000 0.000000 -40.060002 -45.680466 -30.050616 3.267711 20.210419 0.661021 31.884723 -2.264414 -6.386013 -14.798025 13.129668 10.648929 0.000000 0.000000 0.000000 -40.405838 -43.310861 -30.144299 13.038725 -9.332353 -7.477902 28.665163 2.537225 -5.779442 -14.639759 -14.733070 7.144582 0.000000 0.000000 0.000000 -39.842604 -43.694660 -29.224474 -0.772785 0.140831 -1.004018 12.015327 -4.308058 0.658475 4.426843 -2.171154 0.376754 0.000000 0.000000 0.000000 3.861537 -1.896827 -0.068802 0.660431 0.172726 -0.459660 0.000000 0.000000 0.000000 3.690745 -1.868862 -0.411790 0.004101 -18.128582 -10.855816 -21.708470 2.390848 -37.193901 1.959602 -59.787726 1.591576 0.000000 0.000000 0.000000 3.678966 -1.532427 -0.283168 0.300671 14.942881 15.167492 -9.964690 -4.781205 61.562851 1.036841 41.867758 -0.040593 0.000000 0.000000 0.000000 
2.463902 91.368881 13.301960 0.000000 0.000000 0.000000 -42.648531 -47.614601 -32.781206 3.681818 20.503596 0.778342 31.616775 -2.362769 -6.815241 -14.834513 13.843806 11.476027 0.000000 0.000000 0.000000 -42.994876 -45.182350 -32.834820 11.892365 -9.889048 -6.389957 29.927973 0.806040 -5.883787 -14.970081 -14.924990 5.012433 0.000000 0.000000 0.000000 -42.164547 -45.557963 -31.699400 -0.625907 0.010675 -1.026095 11.983711 -4.278126 0.601168 4.429761 -2.175127 0.392705 0.000000 0.000000 0.000000 3.863461 -1.888886 -0.073605 0.637069 0.167967 -0.454811 0.000000 0.000000 0.000000 3.667437 -1.865861 -0.427469 -0.007939 -18.000303 -10.834707 -21.853183 2.088044 -37.234042 1.891108 -59.588913 1.574215 0.000000 0.000000 0.000000 3.667338 -1.517112 -0.289748 0.284620 14.868832 15.144430 -9.960665 -4.683891 61.612719 1.057614 41.757202 -0.086352 0.000000 0.000000 0.000000 
2.865753 91.483307 13.579834 0.000000 0.000000 0.000000 -45.517040 -49.442804 -35.749798 4.204464 20.866417 0.798972 31.507099 -2.097093 -7.023796 -14.933818 14.452759 11.933230 0.000000 0.000000 0.000000 -45.794731 -46.922624 -35.698117 10.721652 -10.596981 -5.550879 32.011147 -0.815823 -5.552820 -16.375606 -15.194756 3.008880 0.000000 0.000000 0.000000 -44.636809 -47.352783 -34.280863 -0.516790 -0.037228 -1.142285 11.997005 -4.262593 0.546872 4.448974 -2.182452 0.403647 0.000000 0.000000 0.000000 3.860427 -1.884356 -0.076609 0.613985 0.167463 -0.454477 0.000000 0.000000 0.000000 3.651082 -1.868815 -0.451056 -0.035933 -17.866646 -10.868726 -22.052461 1.924367 -37.294274 1.847416 -59.402025 1.574783 0.000000 0.000000 0.000000 3.646938 -1.507206 -0.298490 0.270242 14.808426 15.105660 -9.963468 -4.554359 61.695849 1.071904 41.632971 -0.136089 0.000000 0.000000 0.000000 
3.164948 91.552246 13.840981 0.000000 0.000000 0.000000 -48.563437 -51.142756 -38.901479 4.711060 21.484900 0.728369 31.671536 -1.492086 -7.132595 -15.056235 14.954839 11.876836 0.000000 0.000000 0.000000 -48.638791 -48.612403 -38.640552 9.650546 -11.290818 -5.102098 34.743820 -2.126889 -4.827429 -17.669033 -15.502593 1.756429 0.000000 0.000000 0.000000 -47.183616 -49.059155 -36.957334 -0.416964 -0.049775 -1.258852 12.054381 -4.250181 0.518921 4.488218 -2.188876 0.414764 0.000000 0.000000 0.000000 3.856268 -1.882062 -0.069575 0.595989 0.171890 -0.461649 0.000000 0.000000 0.000000 3.636289 -1.874938 -0.473169 -0.078357 -17.759117 -10.977607 -22.281018 1.859773 -37.351313 1.839909 -59.283303 1.590934 0.000000 0.000000 0.000000 3.619017 -1.502770 -0.306093 0.262767 14.772979 15.055110 -9.930306 -4.462771 61.762095 1.078200 41.577858 -0.167055 0.000000 0.000000 0.000000 
3.347030 91.564262 14.083988 0.000000 0.000000 0.000000 -51.513973 -52.728155 -42.102604 5.076334 22.357426 0.672422 32.223477 -0.692399 -7.203122 -15.297453 15.391208 11.303411 0.000000 0.000000 0.000000 -51.236961 -50.210322 -41.510174 8.981578 -11.987814 -4.967453 37.448489 -3.140608 -3.817607 -18.242383 -15.981394 1.371580 0.000000 0.000000 0.000000 -49.703013 -50.724127 -39.737487 -0.305151 -0.014400 -1.325117 12.124882 -4.228997 0.518620 4.537722 -2.186735 0.421844 0.000000 0.000000 0.000000 3.853036 -1.878937 -0.055533 0.586864 0.179808 -0.476240 0.000000 0.000000 0.000000 3.621173 -1.879925 -0.489561 -0.124748 -17.693031 -11.151554 -22.489957 1.834831 -37.371940 1.869617 -59.269294 1.614542 0.000000 0.000000 0.000000 3.601302 -1.496664 -0.316056 0.262310 14.773218 14.997864 -9.897145 -4.423150 61.785761 1.070243 41.605711 -0.175843 0.000000 0.000000 0.000000 
3.419178 91.516052 14.344955 0.000000 0.000000 0.000000 -54.237030 -54.181387 -45.276030 5.322372 23.381739 0.678826 33.062094 0.204025 -7.255664 -15.666763 15.825289 10.364144 0.000000 0.000000 0.000000 -53.495821 -51.769876 -44.293500 9.277269 -12.731718 -4.900375 39.173515 -4.075239 -2.649395 -18.169543 -16.927743 1.383401 0.000000 0.000000 0.000000 -51.967617 -52.299882 -42.500955 -0.233868 0.118937 -1.361475 12.171471 -4.188687 0.513835 4.587911 -2.172455 0.423305 0.000000 0.000000 0.000000 3.847073 -1.871113 -0.044026 0.587102 0.189076 -0.496594 0.000000 0.000000 0.000000 3.609265 -1.879233 -0.500173 -0.161364 -17.659287 -11.357415 -22.613969 1.802860 -37.333930 1.909067 -59.334256 1.622777 0.000000 0.000000 0.000000 3.608518 -1.484502 -0.326528 0.272199 14.800774 14.919418 -9.918476 -4.392885 61.829297 1.061540 41.646812 -0.186651 0.000000 0.000000 0.000000 
3.391639 91.408340 14.579987 0.000000 0.000000 0.000000 -56.638258 -55.490082 -48.293918 5.539139 24.435403 0.784115 33.898048 1.101299 -7.227005 -16.126095 16.286255 9.342148 0.000000 0.000000 0.000000 -55.512653 -53.304371 -47.058050 10.755200 -13.740940 -4.679088 39.286148 -5.345530 -1.386349 -18.584919 -18.531937 1.057778 0.000000 0.000000 0.000000 -54.026571 -53.758322 -45.267806 -0.174143 0.349014 -1.374460 12.149182 -4.134150 0.470688 4.642659 -2.148830 0.422414 0.000000 0.000000 0.000000 3.845265 -1.857858 -0.040342 0.594223 0.198436 -0.519590 0.000000 0.000000 0.000000 3.604777 -1.871354 -0.506497 -0.182511 -17.647693 -11.569864 -22.613527 1.746379 -37.223602 1.936762 -59.425200 1.601187 0.000000 0.000000 0.000000 3.644408 -1.460983 -0.336118 0.292229 14.835601 14.821036 -10.008765 -4.359745 61.981105 1.063688 41.628446 -0.226465 0.000000 0.000000 0.000000 
3.307882 91.327415 14.725925 0.000000 0.000000 0.000000 -58.639462 -56.580129 -51.024368 5.794857 25.432056 0.983709 34.518502 1.988573 -7.061379 -16.453834 16.873865 8.540820 0.000000 0.000000 0.000000 -57.190683 -54.620080 -49.644281 13.078784 -15.235849 -4.271706 38.072274 -7.172429 -0.102900 -19.916975 -20.709998 0.083813 0.000000 0.000000 0.000000 -55.856672 -55.020562 -47.923694 -0.130240 0.638366 -1.479420 12.034217 -4.079699 0.370369 4.695490 -2.123786 0.421240 0.000000 0.000000 0.000000 3.841140 -1.839139 -0.045169 0.605884 0.209157 -0.543220 0.000000 0.000000 0.000000 3.607885 -1.856969 -0.506639 -0.191360 -17.658525 -11.758812 -22.512551 1.698725 -37.044501 1.960460 -59.512893 1.563398 0.000000 0.000000 0.000000 3.695450 -1.429145 -0.340686 0.311597 14.872570 14.727657 -10.143404 -4.329495 62.224895 1.066073 41.536330 -0.284518 0.000000 0.000000 0.000000 
